<?xml version="1.0" encoding="UTF-8"?>
<svg version="1.1" xmlns="http://www.w3.org/2000/svg" viewBox="200 44 1205 1205" width="1205" height="1205">
<style>
    .icon-shape { fill: #10B981; }
    .icon-fork  { fill: #FEFEFE; }
    @media (prefers-color-scheme: dark) {
      .icon-shape { fill: #FFFFFF; }
      .icon-fork  { fill: #0C2B20; }
    }
  </style>
<path d="M0 0 C1.14130371 0.00182281 2.28260742 0.00364563 3.45849609 0.00552368 C20.99836675 0.05259967 38.14121608 0.62359552 55.5 3.3125 C56.62519043 3.47878906 57.75038086 3.64507812 58.90966797 3.81640625 C127.62397121 14.19127658 193.39361186 43.44580962 246.5 88.3125 C247.51175293 89.15659424 248.52350586 90.00068848 249.56591797 90.87036133 C257.75734957 97.75231024 265.48769787 104.98571622 273.0246582 112.57641602 C274.82215805 114.38471608 276.63022316 116.18195977 278.43945312 117.97851562 C285.25142421 124.78229485 291.55151407 131.73182166 297.5 139.3125 C298.52444313 140.56747755 299.55145715 141.82036474 300.58203125 143.0703125 C342.48792611 194.52106408 369.66603256 256.97747941 380.5 322.3125 C380.65307617 323.21919434 380.80615234 324.12588867 380.96386719 325.06005859 C382.91711744 336.92221319 383.92633273 348.82363839 384.6875 360.8125 C384.75195816 361.81594452 384.75195816 361.81594452 384.81771851 362.83966064 C388.16214485 416.14540322 378.14435556 467.2159565 362.46852112 517.88957214 C360.95593588 522.79230377 359.49298715 527.70782721 358.0546875 532.6328125 C341.11236074 590.43458759 315.02479789 644.99436505 286.71582031 698.02197266 C283.76027593 703.59002835 280.86452854 709.18975021 277.95507812 714.78198242 C275.65892027 719.1909142 273.35645696 723.59532808 271.0078125 727.9765625 C250.42829212 766.41969516 231.45991516 807.17110327 223.5 850.3125 C223.27473633 851.52728027 223.27473633 851.52728027 223.04492188 852.76660156 C220.44993151 867.23687294 219.63168715 881.60056699 218.5 896.3125 C74.62 896.3125 -69.26 896.3125 -217.5 896.3125 C-218.49 885.0925 -219.48 873.8725 -220.5 862.3125 C-229.36322947 807.86694754 -253.31289238 758.39799431 -278.97265625 710.08203125 C-282.36718762 703.69018658 -285.70139657 697.2669109 -289.04370117 690.84765625 C-291.34626128 686.42886186 -293.65333829 682.01299397 -295.9921875 677.61328125 C-313.50047822 644.67249879 -329.31147726 611.22107349 -342.5 576.3125 C-343.04430664 574.89396729 -343.04430664 574.89396729 -343.59960938 573.44677734 C-348.94538274 559.49812012 -353.34805738 545.32035718 -357.5348053 530.98626709 C-358.96190671 526.11098843 -360.42418755 521.24716731 -361.90127563 516.3868103 C-368.33719023 495.20690984 -374.70102608 474.15577202 -378.5 452.3125 C-378.69384277 451.20729004 -378.88768555 450.10208008 -379.08740234 448.96337891 C-381.45787143 435.02964597 -382.89583036 421.09720777 -383.75 407 C-383.79129028 406.32184235 -383.83258057 405.64368469 -383.87512207 404.94497681 C-389.02694549 317.46919939 -362.98444905 227.64316773 -310.5 157.3125 C-310.06880859 156.73113281 -309.63761719 156.14976562 -309.19335938 155.55078125 C-302.96803511 147.19297263 -296.36725196 139.14961199 -289.5 131.3125 C-288.87029297 130.59376709 -288.24058594 129.87503418 -287.59179688 129.13452148 C-281.85062485 122.6666106 -275.85778094 116.48405414 -269.74414062 110.37133789 C-268.1285932 108.75359808 -266.52124966 107.12799364 -264.9140625 105.50195312 C-258.4333197 98.98617894 -251.72519933 93.00962618 -244.5 87.3125 C-243.28003385 86.31165547 -242.06224699 85.30814242 -240.84765625 84.30078125 C-185.81239706 39.24494115 -117.06751806 10.69281299 -46.5 2.3125 C-45.4210849 2.18329666 -45.4210849 2.18329666 -44.32037354 2.05148315 C-29.53834155 0.32983446 -14.87243037 -0.04946455 0 0 Z " class="icon-shape" transform="translate(799.5,255.6875)"/>
<path d="M0 0 C6.26162564 3.8893798 10.13364609 9.30338711 12.7734375 16.1015625 C13.28667781 18.9583092 13.29939837 21.72159204 13.25445557 24.6184082 C13.25787327 25.43787052 13.26129097 26.25733284 13.26481223 27.10162735 C13.27136209 29.82723048 13.24946367 32.55183249 13.22753906 35.27734375 C13.22640996 37.23908973 13.22704568 39.2008374 13.22930908 41.1625824 C13.23045469 46.47407172 13.20697004 51.78519823 13.17901325 57.09660339 C13.15397411 62.6525996 13.15165561 68.20860452 13.14691162 73.76464844 C13.13448926 84.27946274 13.10167754 94.7941103 13.06151366 105.30885124 C13.01677304 117.28218323 12.99480313 129.25552327 12.97473192 141.22891808 C12.93294432 165.85324657 12.85960105 190.47734654 12.7734375 215.1015625 C31.9134375 215.1015625 51.0534375 215.1015625 70.7734375 215.1015625 C70.75772705 209.1402124 70.7420166 203.1788623 70.72583008 197.03686523 C70.67617032 177.36334802 70.64285021 157.68982838 70.61800098 138.01626492 C70.60253115 126.0855992 70.58143933 114.15499285 70.54711914 102.22436523 C70.51722044 91.82581212 70.49786334 81.427302 70.49117202 71.02870709 C70.48726058 65.52257246 70.47806557 60.01656084 70.45624733 54.51046562 C70.43587485 49.32719865 70.42960529 44.14410529 70.43411446 38.96080208 C70.4332896 37.05930259 70.42732854 35.15779725 70.41582108 33.2563324 C70.40086506 30.65740573 70.40449519 28.05913203 70.41267395 25.46018982 C70.40393543 24.71017195 70.3951969 23.96015407 70.38619357 23.18740839 C70.45555429 15.01656374 73.58264469 9.73264647 79.00390625 3.83203125 C84.97969924 -2.01184578 91.35943073 -2.31928605 99.37890625 -2.23828125 C107.01978876 -1.47331373 112.69819379 2.21932684 117.51953125 8.0625 C121.09043695 13.86939338 122.21328592 18.67242259 122.13420105 25.46018982 C122.13676432 26.27471416 122.1393276 27.0892385 122.14196855 27.9284454 C122.14688891 30.64317559 122.13044262 33.35734299 122.11401367 36.07202148 C122.11316702 38.02376797 122.11364328 39.97551542 122.11534119 41.92726135 C122.11620108 47.21601838 122.09857615 52.50457083 122.07761931 57.79328036 C122.05885161 63.32393272 122.05710199 68.85458988 122.05354309 74.38526917 C122.04422292 84.85404115 122.01960945 95.32271904 121.98949462 105.79144961 C121.9559498 117.71156536 121.93946438 129.63168564 121.92440832 141.55183685 C121.89305991 166.06847624 121.8380481 190.58498664 121.7734375 215.1015625 C142.8934375 215.1015625 164.0134375 215.1015625 185.7734375 215.1015625 C185.74725342 209.15592285 185.72106934 203.2102832 185.6940918 197.08447266 C185.61126781 177.44692752 185.55576874 157.80937554 185.51437664 138.17170143 C185.48861111 126.26460483 185.45349191 114.35767387 185.39624023 102.45068359 C185.346355 92.07077877 185.31413449 81.69099394 185.30299503 71.31097257 C185.29648501 65.81638252 185.2812186 60.32213569 185.24478722 54.82765579 C185.21074709 49.65168491 185.20040083 44.47619731 185.20789909 39.30012512 C185.20652814 37.40470627 185.19664367 35.50927058 185.17741013 33.61394882 C185.06879983 22.35510495 185.28208887 13.70387762 192.80078125 4.6640625 C193.43113281 4.1484375 194.06148437 3.6328125 194.7109375 3.1015625 C195.33871094 2.5653125 195.96648437 2.0290625 196.61328125 1.4765625 C203.6156262 -2.98062633 212.18492685 -2.90951673 220.1484375 -1.46875 C226.91860571 0.67337354 231.51899501 5.58612549 234.84591293 11.7071991 C237.00565616 16.11146492 237.32965882 19.77113631 237.25445557 24.6184082 C237.25787327 25.43787052 237.26129097 26.25733284 237.26481223 27.10162735 C237.27136209 29.82723048 237.24946367 32.55183249 237.22753906 35.27734375 C237.22640996 37.23908973 237.22704568 39.2008374 237.22930908 41.1625824 C237.23045469 46.47407172 237.20697004 51.78519823 237.17901325 57.09660339 C237.15397411 62.6525996 237.15165561 68.20860452 237.14691162 73.76464844 C237.13448926 84.27946274 237.10167754 94.7941103 237.06151366 105.30885124 C237.01677304 117.28218323 236.99480313 129.25552327 236.97473192 141.22891808 C236.93294432 165.85324657 236.85960105 190.47734654 236.7734375 215.1015625 C255.9134375 215.1015625 275.0534375 215.1015625 294.7734375 215.1015625 C294.75772705 209.1402124 294.7420166 203.1788623 294.72583008 197.03686523 C294.67617032 177.36334802 294.64285021 157.68982838 294.61800098 138.01626492 C294.60253115 126.0855992 294.58143933 114.15499285 294.54711914 102.22436523 C294.51722044 91.82581212 294.49786334 81.427302 294.49117202 71.02870709 C294.48726058 65.52257246 294.47806557 60.01656084 294.45624733 54.51046562 C294.43587485 49.32719865 294.42960529 44.14410529 294.43411446 38.96080208 C294.4332896 37.05930259 294.42732854 35.15779725 294.41582108 33.2563324 C294.40086506 30.65740573 294.40449519 28.05913203 294.41267395 25.46018982 C294.40393543 24.71017195 294.3951969 23.96015407 294.38619357 23.18740839 C294.45555429 15.01656374 297.58264469 9.73264647 303.00390625 3.83203125 C308.97969924 -2.01184578 315.35943073 -2.31928605 323.37890625 -2.23828125 C331.01978876 -1.47331373 336.69819379 2.21932684 341.51953125 8.0625 C345.73139407 14.91169748 346.20826343 20.40763531 346.16784668 28.32907104 C346.17393778 29.45264043 346.18002889 30.57620981 346.18630457 31.73382676 C346.20294155 35.4956685 346.19815736 39.257172 346.19335938 43.01904297 C346.20069994 45.71840575 346.20919394 48.41774332 346.21902466 51.11709595 C346.24006518 57.69052986 346.24461989 64.26387554 346.24283677 70.83733915 C346.24152668 76.19118296 346.24534597 81.54499938 346.25276184 86.89883804 C346.25486124 88.44408707 346.25695884 89.98933609 346.25905466 91.53458512 C346.26061995 92.68857539 346.26061995 92.68857539 346.26221687 93.8658786 C346.28111894 108.416687 346.2800712 122.96744501 346.27324754 137.51826061 C346.26769114 150.77678518 346.28841592 164.03511537 346.32160801 177.29359458 C346.35551062 190.9433733 346.37049159 204.59305943 346.36589098 218.24288094 C346.36366046 225.89125947 346.368677 233.53945913 346.39378357 241.18780136 C346.4150137 247.71056315 346.41817923 254.23304842 346.39948398 260.75582241 C346.39045102 264.07260546 346.39160481 267.38846391 346.40983963 270.70526886 C346.52332277 292.90395553 344.60225719 314.86439366 334.7734375 335.1015625 C334.47566406 335.7217627 334.17789062 336.34196289 333.87109375 336.98095703 C316.07120246 373.60552588 282.3814516 395.05638019 248.5234375 415.2265625 C214.05023731 435.13177375 214.05023731 435.13177375 193.41836166 467.72729492 C191.93041955 475.51226426 192.38129506 483.55127953 192.42041016 491.44726562 C192.41957847 493.51130775 192.41735953 495.57534971 192.41386414 497.63938904 C192.40892943 502.06949067 192.41298213 506.49945955 192.42387772 510.92955017 C192.44028512 517.93978295 192.43175138 524.94985057 192.41903687 531.96008301 C192.38896424 550.63041588 192.39038097 569.30071832 192.40928972 587.97106314 C192.4216307 600.24792105 192.41974333 612.52459108 192.39090192 624.80142736 C192.37569027 631.76512032 192.38311744 638.72830226 192.40761209 645.6919632 C192.41770218 650.02896719 192.40697042 654.36573817 192.39049721 658.70271492 C192.38705383 660.7077735 192.39210724 662.71286821 192.40646553 664.71787834 C192.54875624 685.90514958 192.54875624 685.90514958 185.01801491 693.98497772 C178.79078941 699.96038607 172.20386479 701.56616424 163.83984375 701.53515625 C163.00307602 701.5403981 162.16630829 701.54563995 161.30418396 701.55104065 C159.54353947 701.55743217 157.78285211 701.55616125 156.0222168 701.54760742 C153.3467108 701.53909677 150.67334256 701.56789816 147.99804688 701.59960938 C146.27864647 701.6012218 144.55924232 701.60064306 142.83984375 701.59765625 C142.05001602 701.60889023 141.26018829 701.62012421 140.44642639 701.63169861 C133.61313834 701.54708695 128.46490727 699.45125833 123.3125 694.953125 C122.68085937 694.21835938 122.04921875 693.48359375 121.3984375 692.7265625 C120.75132812 691.99695312 120.10421875 691.26734375 119.4375 690.515625 C115.70492333 685.10076025 115.48472827 679.78695719 115.5218811 673.45040894 C115.51891096 672.59211963 115.51594083 671.73383032 115.51288068 670.84953225 C115.50525639 667.9801862 115.51172838 665.1110458 115.51806641 662.24169922 C115.5153157 660.18149171 115.51163532 658.12128527 115.50709534 656.06108093 C115.49898729 651.62658124 115.49681394 647.19213196 115.49904251 642.75762558 C115.50187786 635.73877604 115.48751431 628.72002699 115.47006226 621.70120239 C115.42305959 601.74287428 115.39910255 581.78455287 115.39257812 561.82617188 C115.38882205 550.80157913 115.37074738 539.77710001 115.33748376 528.75255597 C115.31731329 521.78282001 115.31487856 514.81337797 115.32576394 507.84362483 C115.32838011 503.49561174 115.31432246 499.14776799 115.29568291 494.79979897 C115.29038227 492.79236915 115.29182103 490.78490772 115.30071831 488.77749062 C115.38229452 468.74695487 110.74113625 455.80383613 96.7734375 441.1015625 C94.33651569 438.88939103 91.78196094 436.8862031 89.1484375 434.9140625 C88.05426514 434.08733032 88.05426514 434.08733032 86.93798828 433.24389648 C77.94298067 426.57570601 68.37263076 420.84635679 58.7734375 415.1015625 C16.46545289 389.7566178 -22.1177214 362.05772457 -35.2265625 312.1015625 C-38.77672151 297.40223223 -38.66577527 282.85600914 -38.64648438 267.81079102 C-38.65220906 265.0856166 -38.6623344 262.36046202 -38.67214966 259.63529968 C-38.69305266 253.04153274 -38.6977536 246.44785399 -38.69596177 239.8540578 C-38.69464776 234.49317331 -38.69849058 229.13231606 -38.70588684 223.77143669 C-38.70798625 222.22015776 -38.71008385 220.66887884 -38.71217966 219.1175999 C-38.71374495 217.95908524 -38.71374495 217.95908524 -38.71534187 216.77716624 C-38.73417919 202.22199916 -38.73321258 187.66688266 -38.72637254 173.11170845 C-38.72078776 159.81135445 -38.74167382 146.51119249 -38.77473301 133.21088339 C-38.80849368 119.52131015 -38.82363633 105.83182892 -38.81901598 92.14221328 C-38.81677552 84.469311 -38.82195402 76.79658672 -38.84690857 69.12372017 C-38.86795117 62.59894195 -38.87148332 56.07443964 -38.85260898 49.54964996 C-38.84347327 46.22452824 -38.84496947 42.90034016 -38.86296463 39.5751915 C-38.88115698 35.96421586 -38.86840599 32.35460243 -38.84802246 28.7436676 C-38.86054031 27.70270843 -38.87305816 26.66174925 -38.88595533 25.58924586 C-38.78712065 17.40298373 -36.46220761 10.99181789 -31.19921875 4.6640625 C-30.56886719 4.1484375 -29.93851563 3.6328125 -29.2890625 3.1015625 C-28.66128906 2.5653125 -28.03351562 2.0290625 -27.38671875 1.4765625 C-19.71747234 -3.4051278 -8.26521346 -3.73155207 0 0 Z " class="icon-fork" transform="translate(646.2265625,424.8984375)"/>
<path d="M0 0 C1.40378908 -0.00346107 2.80757544 -0.00822864 4.21135616 -0.01418173 C8.0502563 -0.02665983 11.88893157 -0.020536 15.72783232 -0.01122308 C19.87513949 -0.00441979 24.02240869 -0.01492015 28.16970825 -0.02316284 C36.28692602 -0.03648873 44.40406047 -0.03362754 52.52128148 -0.02492492 C59.11949041 -0.01814428 65.71767603 -0.0172333 72.31588745 -0.02049637 C73.25569236 -0.02095607 74.19549726 -0.02141577 75.16378111 -0.0218894 C77.07309573 -0.02284859 78.98241034 -0.02382123 80.89172494 -0.02480717 C98.7869884 -0.03335771 116.68220571 -0.0235322 134.5774616 -0.00740607 C149.92576899 0.0059968 165.2740083 0.00366862 180.62231445 -0.01016235 C198.45441718 -0.02622409 216.2864795 -0.03253377 234.11858845 -0.02332556 C236.0208009 -0.02236994 237.92301336 -0.02142682 239.82522583 -0.02049637 C241.22904012 -0.01980213 241.22904012 -0.01980213 242.66121429 -0.01909386 C249.24997265 -0.01650576 255.83870533 -0.0208711 262.42745972 -0.02793503 C270.45913649 -0.03635682 278.49072531 -0.0340556 286.52239203 -0.0180928 C290.61870776 -0.01021922 294.71487698 -0.00710286 298.81119156 -0.01704025 C302.56406346 -0.02600665 306.3166536 -0.02102252 310.06950009 -0.0051076 C312.06364198 -0.00019101 314.05780356 -0.00993889 316.05192471 -0.02027929 C325.79158453 0.04339098 334.81954567 1.3283507 342.07055664 8.38095093 C348.07890879 16.33501297 348.99062078 23.49290532 348.07055664 33.38095093 C345.61459353 41.65192984 340.67616241 46.78644729 333.31248951 50.93466949 C327.54589775 53.34700494 321.30273889 52.80016952 315.16056824 52.77536011 C313.73446797 52.78025211 312.30837167 52.78644334 310.88228208 52.793818 C306.97239931 52.81020171 303.06271839 52.80790281 299.15281332 52.80244303 C294.93250332 52.79977088 290.71224689 52.81430815 286.49195862 52.82653809 C278.22708779 52.84758678 269.96228713 52.85213325 261.69739266 52.8503502 C254.97852871 52.84904224 248.25968663 52.85284848 241.5408268 52.86027527 C239.60496388 52.86237448 237.66910096 52.86447208 235.73323804 52.86656809 C234.76967959 52.86761162 233.80612114 52.86865514 232.81336395 52.86973029 C214.59189061 52.88863057 196.37045753 52.88758318 178.14897845 52.88076097 C161.48541068 52.87518626 144.8219967 52.89600826 128.15846487 52.92912143 C111.04301391 52.9628683 93.92763658 52.97802548 76.81215173 52.97340441 C67.2052742 52.97116065 57.59853877 52.97638913 47.99168968 53.001297 C39.81246623 53.02232303 31.6334628 53.02588924 23.45423027 53.00699741 C19.28277151 52.99784738 15.11172285 52.99667372 10.94029617 53.01735306 C7.11743754 53.03609445 3.29532399 53.03152498 -0.52750655 53.00880724 C-2.55681136 53.00265842 -4.58614542 53.02098825 -6.61536723 53.04034376 C-15.24141734 52.95693173 -22.30061617 51.61403873 -28.83211547 45.64094687 C-35.3024675 38.74831782 -36.57239679 32.17341662 -36.33569336 22.89266968 C-35.5128701 15.77999551 -32.72810557 10.48225662 -27.17944336 5.94345093 C-19.01786638 -0.00030622 -9.71137527 -0.05035778 0 0 Z " class="icon-shape" transform="translate(643.929443359375,1176.6190490722656)"/>
<path d="M0 0 C1.19388588 -0.00623996 2.38777176 -0.01247993 3.617836 -0.01890898 C6.90540058 -0.0320331 10.19236671 -0.02740551 13.47991562 -0.0149641 C17.03555104 -0.0058717 20.59110879 -0.01990399 24.14672852 -0.03088379 C31.10177438 -0.04862915 38.05664715 -0.04484688 45.01169968 -0.03323323 C50.66642421 -0.02418344 56.32110038 -0.02298157 61.97583008 -0.02732849 C62.78199343 -0.02794142 63.58815679 -0.02855436 64.41874933 -0.02918586 C66.05668069 -0.03046482 67.69461204 -0.03176167 69.33254337 -0.03307623 C84.67552944 -0.04447035 100.01841976 -0.03138668 115.36139011 -0.00987476 C128.51376113 0.00799517 141.66599091 0.00489074 154.81835938 -0.0135498 C170.10809401 -0.03497718 185.39774482 -0.04337183 200.68749237 -0.03110075 C202.31924946 -0.02982661 203.95100656 -0.02856913 205.58276367 -0.02732849 C206.78690847 -0.02640284 206.78690847 -0.02640284 208.01537943 -0.02545848 C213.66041998 -0.02201118 219.30540717 -0.02782054 224.95043945 -0.0372467 C231.83402538 -0.04848885 238.71742896 -0.04538027 245.60099411 -0.02412373 C249.11016622 -0.01364292 252.61903478 -0.00944022 256.12820435 -0.02272034 C259.93863567 -0.03367144 263.74821642 -0.01991531 267.55859375 0 C268.65880104 -0.00892289 269.75900833 -0.01784577 270.89255524 -0.02703905 C279.56891209 0.06075164 286.95526544 1.82566086 293.65429688 7.57043457 C298.32361599 12.7144126 300.8391051 19.59266371 301.27929688 26.50793457 C300.8391051 33.42320543 298.32361599 40.30145654 293.65429688 45.44543457 C285.91039214 52.08624238 277.43880931 53.09599954 267.55859375 53.01586914 C266.36470787 53.0221091 265.17082199 53.02834907 263.94075775 53.03477812 C260.65319317 53.04790224 257.36622704 53.04327465 254.07867813 53.03083324 C250.52304271 53.02174084 246.96748496 53.03577313 243.41186523 53.04675293 C236.45681937 53.06449829 229.5019466 53.06071602 222.54689407 53.04910237 C216.89216954 53.04005258 211.23749337 53.03885071 205.58276367 53.04319763 C204.77660032 53.04381056 203.97043696 53.0444235 203.13984442 53.045055 C201.50191306 53.04633396 199.86398171 53.04763081 198.22605038 53.04894537 C182.88306431 53.06033949 167.54017399 53.04725582 152.19720364 53.0257439 C139.04483262 53.00787397 125.89260284 53.01097841 112.74023438 53.02941895 C97.45049974 53.05084632 82.16084893 53.05924097 66.87110138 53.04696989 C65.23934429 53.04569575 63.60758719 53.04443827 61.97583008 53.04319763 C61.17306688 53.04258053 60.37030368 53.04196343 59.54321432 53.04132763 C53.89817377 53.03788032 48.25318658 53.04368968 42.6081543 53.05311584 C35.72456837 53.06435799 28.84116479 53.06124942 21.95759964 53.03999287 C18.44842753 53.02951206 14.93955897 53.02530937 11.4303894 53.03858948 C7.61995808 53.04954059 3.81037733 53.03578445 0 53.01586914 C-1.10020729 53.02479203 -2.20041458 53.03371491 -3.33396149 53.04290819 C-12.01031834 52.9551175 -19.39667169 51.19020828 -26.09570312 45.44543457 C-30.76502224 40.30145654 -33.28051135 33.42320543 -33.72070312 26.50793457 C-33.28051135 19.59266371 -30.76502224 12.7144126 -26.09570312 7.57043457 C-18.35179839 0.92962676 -9.88021556 -0.0801304 0 0 Z " class="icon-shape" transform="translate(666.220703125,1253.4920654296875)"/>
<path d="M0 0 C67.98 0 135.96 0 206 0 C204.42679718 22.02483943 198.12330948 38.53704427 181.375 53.125 C159.01472045 71.00201548 131.77250119 77.22784046 103.625 77.25 C102.47633957 77.25101212 102.47633957 77.25101212 101.30447388 77.25204468 C90.23479495 77.23651552 79.75555541 76.84976255 69 74 C68.31808594 73.83371094 67.63617187 73.66742187 66.93359375 73.49609375 C45.35141721 68.20826465 23.04024258 56.76619677 10.59375 37.71484375 C3.48467974 25.60503044 0 14.06341681 0 0 Z " class="icon-shape" transform="translate(697,1331)"/>
<path d="M0 0 C1.36868225 -0.00856522 1.36868225 -0.00856522 2.76501465 -0.01730347 C3.75370041 -0.01842133 4.74238617 -0.01953918 5.7610321 -0.02069092 C7.33756058 -0.02813828 7.33756058 -0.02813828 8.94593811 -0.03573608 C12.41905881 -0.05032776 15.89213385 -0.05715451 19.36528015 -0.06268311 C21.78277589 -0.06843672 24.20027162 -0.07419443 26.61776733 -0.07995605 C31.68586947 -0.09045731 36.75395578 -0.09630581 41.82206726 -0.09979248 C48.30847108 -0.10527738 54.794665 -0.12930927 61.281003 -0.15776443 C66.27478645 -0.17640908 71.26851951 -0.18159738 76.26233482 -0.18312836 C78.65327795 -0.18615092 81.04422028 -0.19416604 83.43512917 -0.20731354 C86.78350835 -0.22441287 90.13137669 -0.2224841 93.4797821 -0.21600342 C94.46239517 -0.2252182 95.44500824 -0.23443298 96.45739746 -0.243927 C105.44212212 -0.18959263 111.9926293 2.01100815 118.61528015 8.26934814 C123.4493119 13.59233943 123.86941431 19.31125543 123.65434265 26.21075439 C122.7955196 33.61440141 119.04805761 37.87151355 113.60746765 42.69512939 C107.40301921 46.60594017 100.75437874 46.43304404 93.65678406 46.4151001 C92.60707932 46.42021103 91.55737457 46.42532196 90.4758606 46.43058777 C87.01836894 46.44444646 83.56107747 46.44352972 80.1035614 46.44122314 C77.69131904 46.44511219 75.27907735 46.44944729 72.86683655 46.45420837 C67.81486286 46.46166265 62.76295907 46.46138507 57.71098328 46.45611572 C51.24937806 46.45032311 44.78805966 46.46725122 38.32650185 46.4904604 C33.34553872 46.50521999 28.3646443 46.50606637 23.38366318 46.50295067 C21.00192573 46.50346279 18.62018433 46.5086799 16.23846817 46.51876259 C12.90245891 46.53115213 9.56700375 46.52431969 6.23100281 46.51275635 C5.25512711 46.52040009 4.2792514 46.52804382 3.27380371 46.53591919 C-4.05828771 46.47998091 -11.02114208 45.43498169 -16.9980011 40.89044189 C-22.46707781 35.29417735 -24.34842015 30.6476251 -24.78315735 22.91778564 C-24.52747684 15.64623196 -21.83011058 10.16812844 -16.6855011 5.14044189 C-11.40922441 1.36475766 -6.4150603 0.02419187 0 0 Z " class="icon-shape" transform="translate(1249.6855010986328,616.8595581054688)"/>
<path d="M0 0 C1.57455711 -0.0076664 1.57455711 -0.0076664 3.18092346 -0.01548767 C6.63841511 -0.02934637 10.09570659 -0.02842962 13.55322266 -0.02612305 C15.96546502 -0.03001209 18.37770671 -0.0343472 20.78994751 -0.03910828 C25.8419212 -0.04656255 30.89382499 -0.04628497 35.94580078 -0.04101562 C42.407406 -0.03522302 48.86872439 -0.05215112 55.33028221 -0.0753603 C60.31124534 -0.0901199 65.29213975 -0.09096627 70.27312088 -0.08785057 C72.65485833 -0.08836269 75.03659973 -0.0935798 77.41831589 -0.10366249 C80.75432515 -0.11605203 84.0897803 -0.10921959 87.42578125 -0.09765625 C88.40165695 -0.10529999 89.37753265 -0.11294373 90.38298035 -0.12081909 C97.71507177 -0.06488081 104.67792613 0.98011841 110.65478516 5.5246582 C116.12386187 11.12092275 118.00520421 15.767475 118.43994141 23.49731445 C118.1842609 30.76886813 115.48689464 36.24697166 110.34228516 41.2746582 C105.06600847 45.05034244 100.07184436 46.39090823 93.65678406 46.4151001 C92.28810181 46.42366531 92.28810181 46.42366531 90.89176941 46.43240356 C89.40874077 46.43408035 89.40874077 46.43408035 87.89575195 46.43579102 C86.31922348 46.44323837 86.31922348 46.44323837 84.71084595 46.45083618 C81.23772525 46.46542786 77.76465021 46.47225461 74.29150391 46.4777832 C71.87400817 46.48353682 69.45651244 46.48929453 67.03901672 46.49505615 C61.97091459 46.50555741 56.90282828 46.51140591 51.8347168 46.51489258 C45.34831298 46.52037748 38.86211906 46.54440937 32.37578106 46.57286453 C27.38199761 46.59150918 22.38826455 46.59669748 17.39444923 46.59822845 C15.00350611 46.60125102 12.61256378 46.60926614 10.22165489 46.62241364 C6.87327571 46.63951297 3.52540736 46.6375842 0.17700195 46.63110352 C-0.80561111 46.6403183 -1.78822418 46.64953308 -2.8006134 46.6590271 C-11.78533806 46.60469272 -18.33584524 44.40409195 -24.95849609 38.14575195 C-29.79252784 32.82276067 -30.21263026 27.10384467 -29.99755859 20.2043457 C-29.13873554 12.80069869 -25.39127355 8.54358654 -19.95068359 3.7199707 C-13.74623515 -0.19084007 -7.09759469 -0.01794394 0 0 Z " class="icon-shape" transform="translate(256.65771484375,616.725341796875)"/>
<path d="M0 0 C6.03180476 3.56367588 10.42892636 8.58216264 12.27486229 15.36722183 C13.0931569 19.59669682 12.97301314 23.86412327 12.9621582 28.15771484 C12.96726913 29.20741959 12.97238007 30.25712433 12.97764587 31.33863831 C12.99150457 34.79612996 12.99058782 38.25342143 12.98828125 41.7109375 C12.9921703 44.12317987 12.9965054 46.53542155 13.00126648 48.94766235 C13.00872076 53.99963604 13.00844318 59.05153983 13.00317383 64.10351562 C12.99738122 70.56512085 13.01430932 77.02643924 13.0375185 83.48799706 C13.0522781 88.46896019 13.05312447 93.4498546 13.05000877 98.43083572 C13.05052089 100.81257317 13.05573801 103.19431457 13.06582069 105.57603073 C13.07821024 108.91203999 13.0713778 112.24749515 13.05981445 115.58349609 C13.07128006 117.04730965 13.07128006 117.04730965 13.08297729 118.54069519 C13.02703901 125.87278662 11.98203979 132.83564098 7.4375 138.8125 C1.84123546 144.28157671 -2.80531679 146.16291905 -10.53515625 146.59765625 C-17.80670993 146.34197574 -23.28481346 143.64460949 -28.3125 138.5 C-32.08818423 133.22372331 -33.42875003 128.2295592 -33.45294189 121.8144989 C-33.45865204 120.90204407 -33.46436218 119.98958923 -33.47024536 119.04948425 C-33.47136322 118.06079849 -33.47248108 117.07211273 -33.47363281 116.0534668 C-33.47859772 115.00244781 -33.48356262 113.95142883 -33.48867798 112.86856079 C-33.50326966 109.39544009 -33.51009641 105.92236505 -33.515625 102.44921875 C-33.52137862 100.03172301 -33.52713632 97.61422729 -33.53289795 95.19673157 C-33.54339921 90.12862943 -33.54924771 85.06054312 -33.55273438 79.99243164 C-33.55821928 73.50602783 -33.58225117 67.0198339 -33.61070633 60.5334959 C-33.62935098 55.53971245 -33.63453928 50.54597939 -33.63607025 45.55216408 C-33.63909282 43.16122095 -33.64710794 40.77027863 -33.66025543 38.37936974 C-33.67735477 35.03099056 -33.67542599 31.68312221 -33.66894531 28.3347168 C-33.6781601 27.35210373 -33.68737488 26.36949066 -33.6968689 25.35710144 C-33.64253452 16.37237678 -31.44193375 9.8218696 -25.18359375 3.19921875 C-18.58538544 -2.7928911 -8.07783834 -3.53601873 0 0 Z " class="icon-shape" transform="translate(810.3125,68.5)"/>
<path d="M0 0 C5.57811516 3.3586125 8.96169871 8.13509613 10.99609375 14.23828125 C13.70749054 25.73544436 7.96522126 34.69706712 2.25 44.25 C0.98239487 46.39543286 -0.28450852 48.54128046 -1.55078125 50.6875 C-2.20385254 51.7909375 -2.85692383 52.894375 -3.52978516 54.03125 C-6.70271108 59.41618103 -9.82004983 64.83282514 -12.9375 70.25 C-14.18879495 72.42057703 -15.44009708 74.59114992 -16.69140625 76.76171875 C-19.28459892 81.2631477 -21.8751796 85.7660716 -24.46484375 90.26953125 C-27.59024211 95.70313666 -30.72630817 101.13045587 -33.86962891 106.55371094 C-35.3325881 109.0853007 -36.78292071 111.62364561 -38.23046875 114.1640625 C-39.00709009 115.50562679 -39.78436611 116.84681245 -40.5625 118.1875 C-41.19285156 119.28707031 -41.82320312 120.38664062 -42.47265625 121.51953125 C-46.56594559 127.28483858 -51.66640017 130.65325317 -58.5 132.375 C-64.99062247 133.08306791 -71.05528997 131.62935657 -76.5234375 128.05078125 C-81.74501609 123.8536896 -84.67830754 119.11287819 -85.5 112.375 C-86.55763186 101.58715501 -79.89743759 92.18195446 -74.625 83.25 C-73.61542573 81.51982781 -72.60585289 79.78965477 -71.59638977 78.05941772 C-70.56698298 76.29786193 -69.53435766 74.5382368 -68.50048828 72.77929688 C-66.07885158 68.65831785 -63.66733536 64.53149222 -61.25756836 60.40356445 C-60.1252779 58.46400944 -58.99197281 56.52504641 -57.85766602 54.58666992 C-54.64449704 49.08711186 -51.46226093 43.57118937 -48.3125 38.03515625 C-47.95804306 37.4125592 -47.60358612 36.78996216 -47.23838806 36.14849854 C-45.51884246 33.12685057 -43.80272511 30.10333356 -42.09204102 27.07666016 C-21.2061827 -9.69425495 -21.2061827 -9.69425495 0 0 Z " class="icon-shape" transform="translate(1086.5,142.625)"/>
<path d="M0 0 C8.2244055 5.18348786 12.70744246 13.66484286 17.1875 22 C18.41739507 24.24191547 19.64921547 26.48277562 20.8828125 28.72265625 C21.50446289 29.85461426 22.12611328 30.98657227 22.76660156 32.15283203 C25.62081247 37.29356134 28.5849999 42.36747431 31.5625 47.4375 C32.72153666 49.41525765 33.88038895 51.39312336 35.0390625 53.37109375 C35.62204102 54.36608887 36.20501953 55.36108398 36.80566406 56.38623047 C42.45978696 66.06318745 48.0435296 75.78102169 53.625 85.5 C54.12531738 86.36850586 54.62563477 87.23701172 55.14111328 88.13183594 C56.43268554 90.37659304 57.71775408 92.62490628 59 94.875 C59.36327393 95.50470703 59.72654785 96.13441406 60.10083008 96.78320312 C63.47562745 102.74492695 64.64597276 107.88552467 63.12890625 114.7421875 C61.12879922 121.45441109 58.23244214 126.09492653 52.125 129.8125 C46.25359977 132.64335368 40.58354308 133.54304469 34.1640625 131.8515625 C23.27259873 128.02483198 19.12910281 119.3749394 13.6875 109.6875 C12.69522306 107.94412455 11.70293448 106.20075558 10.70993042 104.45779419 C9.6860303 102.65852174 8.66531199 100.85747255 7.64501953 99.05615234 C4.50452354 93.51854098 1.31181986 88.01103239 -1.875 82.5 C-3.11611591 80.34909132 -4.35700029 78.19804902 -5.59765625 76.046875 C-8.85021918 70.40898612 -12.10440646 64.77203609 -15.35888672 59.13525391 C-17.25245804 55.85404172 -19.14398123 52.57165625 -21.03515625 49.2890625 C-23.03399982 45.82019972 -25.03968362 42.35565615 -27.05859375 38.8984375 C-27.43830322 38.24456055 -27.8180127 37.59068359 -28.20922852 36.91699219 C-29.15462447 35.28921684 -30.10441131 33.66399365 -31.0546875 32.0390625 C-34.0455041 26.28749211 -34.28776382 20.15655384 -32.7265625 13.90234375 C-30.27312853 6.95094751 -26.69633895 2.60266492 -20.046875 -0.6328125 C-13.82085765 -2.65353743 -6.03932285 -2.67101167 0 0 Z " class="icon-shape" transform="translate(535.375,142.5)"/>
<path d="M0 0 C1.09062744 0.61431885 2.18125488 1.2286377 3.30493164 1.86157227 C12.69047453 7.1649751 22.00560586 12.58590675 31.3046875 18.0390625 C36.72547737 21.21567697 42.16624778 24.35655859 47.61279297 27.48876953 C51.94045661 29.97856419 56.26248427 32.4780423 60.58398438 34.97851562 C63.12941767 36.44723586 65.68107027 37.90440701 68.234375 39.359375 C69.57334972 40.13466924 70.91193293 40.91064032 72.25 41.6875 C73.34957031 42.31785156 74.44914062 42.94820313 75.58203125 43.59765625 C81.76757114 47.98930496 84.78005467 53.30140437 86.4375 60.625 C87.19278191 67.80017812 85.17877108 73.66915052 80.875 79.375 C76.35761213 84.28569278 70.46876635 86.18408853 64 87.125 C54.5910341 85.80444338 46.5139683 81.23261355 38.5 76.375 C36.38752725 75.11843146 34.27421067 73.8632807 32.16015625 72.609375 C30.51490967 71.63000977 30.51490967 71.63000977 28.83642578 70.63085938 C23.65845949 67.57510797 18.43417823 64.60209059 13.20727539 61.63122559 C0.73115371 54.53778711 -11.70396521 47.37528602 -24.06884766 40.08935547 C-26.28307442 38.78908798 -28.50520921 37.50389963 -30.73046875 36.22265625 C-38.44357334 31.72264999 -44.69488348 27.39353408 -47.5625 18.625 C-48.40303513 10.9917682 -48.3614778 3.89943992 -43.5625 -2.375 C-29.35544367 -16.90494397 -14.85019947 -8.41156976 0 0 Z " class="icon-shape" transform="translate(348.5625,352.375)"/>
<path d="M0 0 C5.29939927 3.07707054 8.42801348 7.56578816 10.30078125 13.3359375 C11.1428051 20.98268898 11.13347685 28.07857441 6.30078125 34.3359375 C0.80920045 40.88942619 -7.09042508 44.49292555 -14.48046875 48.484375 C-20.12577841 51.54189195 -25.66293827 54.7736947 -31.19921875 58.0234375 C-41.90325717 64.29271271 -52.6328262 70.5158321 -63.38671875 76.69921875 C-67.52119976 79.07654533 -71.64538181 81.47031106 -75.76171875 83.87890625 C-77.63669503 84.96879081 -79.51169383 86.05863663 -81.38671875 87.1484375 C-82.65068481 87.89504639 -82.65068481 87.89504639 -83.94018555 88.65673828 C-91.33399986 92.93494858 -98.47069433 95.99224893 -107.15234375 93.68359375 C-114.13010267 91.24973473 -118.32289404 87.92594873 -121.7265625 81.3515625 C-124.61948812 74.47253199 -124.03684715 68.63422684 -121.84375 61.64453125 C-118.78134045 55.46745261 -114.43149665 52.16383347 -108.51171875 48.8984375 C-107.7854126 48.48432617 -107.05910645 48.07021484 -106.31079102 47.64355469 C-104.68077515 46.71442045 -103.0480423 45.79004177 -101.41308594 44.86962891 C-97.40444867 42.60422235 -93.42065771 40.29630917 -89.43432617 37.99194336 C-86.08570434 36.05645135 -82.73434525 34.12575866 -79.3828125 32.1953125 C-73.14259461 28.59653768 -66.9186711 24.97044772 -60.69921875 21.3359375 C-57.7466109 19.61360349 -54.79373385 17.89173173 -51.84082031 16.16992188 C-49.63340387 14.8812902 -47.42697467 13.59107766 -45.22167969 12.29882812 C-42.25174184 10.55883182 -39.27850809 8.82458493 -36.30322266 7.09375 C-34.6165652 6.11062066 -32.93323623 5.12178796 -31.25 4.1328125 C-30.22003906 3.5346875 -29.19007812 2.9365625 -28.12890625 2.3203125 C-27.22382324 1.79147461 -26.31874023 1.26263672 -25.38623047 0.71777344 C-16.6383657 -3.78094677 -8.96320304 -3.93098485 0 0 Z " class="icon-shape" transform="translate(1288.69921875,344.6640625)"/>
</svg>
